{
  "accessors": [
    {
      "bufferView": 2,
      "componentType": 5126,
      "count": 9323,
      "max": [
        76.66567993164063,
        257.7361755371094,
        74.29867553710938
      ],
      "min": [
        -97.90664672851563,
        -2.9000000722589903e-05,
        -89.09095764160156
      ],
      "type": "VEC3"
    },
    {
      "bufferView": 2,
      "byteOffset": 111876,
      "componentType": 5126,
      "count": 9323,
      "type": "VEC3"
    },
    {
      "bufferView": 1,
      "componentType": 5126,
      "count": 9323,
      "type": "VEC2"
    },
    {
      "bufferView": 0,
      "componentType": 5125,
      "count": 41619,
      "type": "SCALAR"
    },
    {
      "bufferView": 2,
      "byteOffset": 223752,
      "componentType": 5126,
      "count": 8998,
      "max": [
        90.26276397705078,
        280.22845458984375,
        92.87469482421875
      ],
      "min": [
        -118.88887023925781,
        24.548799514770508,
        -110.16773223876953
      ],
      "type": "VEC3"
    },
    {
      "bufferView": 2,
      "byteOffset": 331728,
      "componentType": 5126,
      "count": 8998,
      "type": "VEC3"
    },
    {
      "bufferView": 3,
      "componentType": 5126,
      "count": 8998,
      "type": "VEC4"
    },
    {
      "bufferView": 1,
      "byteOffset": 74584,
      "componentType": 5126,
      "count": 8998,
      "type": "VEC2"
    },
    {
      "bufferView": 0,
      "byteOffset": 166476,
      "componentType": 5125,
      "count": 15000,
      "type": "SCALAR"
    }
  ],
  "asset": {
    "generator": "fab-model-conversion",
    "version": "2.0"
  },
  "bufferViews": [
    {
      "buffer": 0,
      "byteLength": 226476,
      "target": 34963
    },
    {
      "buffer": 0,
      "byteLength": 146568,
      "byteOffset": 226476,
      "byteStride": 8,
      "target": 34962
    },
    {
      "buffer": 0,
      "byteLength": 439704,
      "byteOffset": 373044,
      "byteStride": 12,
      "target": 34962
    },
    {
      "buffer": 0,
      "byteLength": 143968,
      "byteOffset": 812748,
      "byteStride": 16,
      "target": 34962
    }
  ],
  "buffers": [
    {
      "byteLength": 956716,
      "uri": "scene.bin"
    }
  ],
  "extensionsUsed": [
    "KHR_materials_specular"
  ],
  "images": [
    {
      "uri": "textures/bark02_baseColor.jpeg"
    },
    {
      "uri": "textures/texturescom_branches0018_1_alphamasked_s_baseColor.png"
    },
    {
      "uri": "textures/texturescom_branches0018_1_alphamasked_s_metallicRoughness.png"
    },
    {
      "uri": "textures/texturescom_branches0018_1_alphamasked_s_normal.png"
    }
  ],
  "materials": [
    {
      "doubleSided": true,
      "extensions": {
        "KHR_materials_specular": {
          "specularColorFactor": [
            1.0,
            1.0,
            1.0
          ],
          "specularFactor": 0.5931783536585366
        }
      },
      "name": "bark02",
      "pbrMetallicRoughness": {
        "baseColorTexture": {
          "index": 0
        },
        "metallicFactor": 0.0,
        "roughnessFactor": 0.4712271341463415
      }
    },
    {
      "alphaMode": "BLEND",
      "doubleSided": true,
      "extensions": {
        "KHR_materials_specular": {
          "specularColorFactor": [
            1.0,
            1.0,
            1.0
          ],
          "specularFactor": 0.6358612804878049
        }
      },
      "name": "texturescom_branches0018_1_alphamasked_s",
      "normalTexture": {
        "index": 3
      },
      "pbrMetallicRoughness": {
        "baseColorTexture": {
          "index": 1
        },
        "metallicFactor": 0.0,
        "metallicRoughnessTexture": {
          "index": 2
        }
      }
    }
  ],
  "meshes": [
    {
      "name": "aa_bark02_0",
      "primitives": [
        {
          "attributes": {
            "NORMAL": 1,
            "POSITION": 0,
            "TEXCOORD_0": 2
          },
          "indices": 3,
          "material": 0,
          "mode": 4
        }
      ]
    },
    {
      "name": "aa_texturescom_branches0018_1_alphamasked_s_0",
      "primitives": [
        {
          "attributes": {
            "NORMAL": 5,
            "POSITION": 4,
            "TANGENT": 6,
            "TEXCOORD_0": 7
          },
          "indices": 8,
          "material": 1,
          "mode": 4
        }
      ]
    }
  ],
  "nodes": [
    {
      "children": [
        1
      ],
      "matrix": [
        1.0,
        0.0,
        0.0,
        0.0,
        0.0,
        2.220446049250313e-16,
        -1.0,
        0.0,
        0.0,
        1.0,
        2.220446049250313e-16,
        0.0,
        0.0,
        0.0,
        0.0,
        1.0
      ],
      "name": "Sketchfab_model"
    },
    {
      "children": [
        2
      ],
      "matrix": [
        1.0,
        0.0,
        0.0,
        0.0,
        0.0,
        0.0,
        1.0,
        0.0,
        0.0,
        -1.0,
        0.0,
        0.0,
        0.0,
        0.0,
        0.0,
        1.0
      ],
      "name": "3622086e961c4d50853cff1ae18d8d1f.fbx"
    },
    {
      "children": [
        3
      ],
      "name": "RootNode"
    },
    {
      "children": [
        4,
        5
      ],
      "matrix": [
        0.3999948501586914,
        0.0,
        0.0,
        0.0,
        0.0,
        0.3999948501586861,
        6.516743496150499e-08,
        0.0,
        0.0,
        -6.516743496150499e-08,
        0.3999948501586861,
        0.0,
        0.0,
        0.0,
        0.0,
        1.0
      ],
      "name": "aa"
    },
    {
      "mesh": 0,
      "name": "aa_bark02_0"
    },
    {
      "mesh": 1,
      "name": "aa_texturescom_branches0018_1_alphamasked_s_0"
    }
  ],
  "samplers": [
    {
      "magFilter": 9729,
      "minFilter": 9987,
      "wrapS": 10497,
      "wrapT": 10497
    }
  ],
  "scene": 0,
  "scenes": [
    {
      "name": "Sketchfab_Scene",
      "nodes": [
        0
      ]
    }
  ],
  "textures": [
    {
      "sampler": 0,
      "source": 0
    },
    {
      "sampler": 0,
      "source": 1
    },
    {
      "sampler": 0,
      "source": 2
    },
    {
      "sampler": 0,
      "source": 3
    }
  ]
}
